<svg width="24" height="24" viewBox="0 0 24 24" fill="none" xmlns="http://www.w3.org/2000/svg">
<path d="M12 22.3486L10 16.3486H2L4 22.3486H12ZM12 22.3486H16M12 13.3486V12.8486C12 10.9626 12 10.0206 11.414 9.43463C10.828 8.84863 9.886 8.84863 8 8.84863C6.114 8.84863 5.172 8.84863 4.586 9.43463C4 10.0206 4 10.9626 4 12.8486V13.3486" stroke="#B3C8CF" stroke-width="1.5" stroke-linecap="round" stroke-linejoin="round"/>
<path d="M19 13.3486C19 13.8791 18.7893 14.3878 18.4142 14.7628C18.0391 15.1379 17.5304 15.3486 17 15.3486C16.4696 15.3486 15.9609 15.1379 15.5858 14.7628C15.2107 14.3878 15 13.8791 15 13.3486C15 12.8182 15.2107 12.3095 15.5858 11.9344C15.9609 11.5593 16.4696 11.3486 17 11.3486C17.5304 11.3486 18.0391 11.5593 18.4142 11.9344C18.7893 12.3095 19 12.8182 19 13.3486ZM10 4.34863C10 4.87907 9.78929 5.38777 9.41421 5.76285C9.03914 6.13792 8.53043 6.34863 8 6.34863C7.46957 6.34863 6.96086 6.13792 6.58579 5.76285C6.21071 5.38777 6 4.87907 6 4.34863C6 3.8182 6.21071 3.30949 6.58579 2.93442C6.96086 2.55935 7.46957 2.34863 8 2.34863C8.53043 2.34863 9.03914 2.55935 9.41421 2.93442C9.78929 3.30949 10 3.8182 10 4.34863Z" stroke="#B3C8CF" stroke-width="1.5"/>
<path d="M14 17.8486H20C20.5304 17.8486 21.0391 18.0593 21.4142 18.4344C21.7893 18.8095 22 19.3182 22 19.8486V20.3486C22 20.8791 21.7893 21.3878 21.4142 21.7628C21.0391 22.1379 20.5304 22.3486 20 22.3486H19" stroke="#B3C8CF" stroke-width="1.5" stroke-linecap="round"/>
</svg>
