<svg width="24" height="24" viewBox="0 0 24 24" fill="none" xmlns="http://www.w3.org/2000/svg">
<path d="M5.40005 8.44883C5.40005 7.73274 5.68451 7.04599 6.19086 6.53964C6.69721 6.03329 7.38396 5.74883 8.10005 5.74883C8.81613 5.74883 9.50289 6.03329 10.0092 6.53964C10.5156 7.04599 10.8 7.73274 10.8 8.44883C10.8 9.16491 10.5156 9.85167 10.0092 10.358C9.50289 10.8644 8.81613 11.1488 8.10005 11.1488C7.38396 11.1488 6.69721 10.8644 6.19086 10.358C5.68451 9.85167 5.40005 9.16491 5.40005 8.44883ZM8.10005 4.54883C7.0657 4.54883 6.07372 4.95972 5.34233 5.69111C4.61094 6.4225 4.20005 7.41448 4.20005 8.44883C4.20005 9.48317 4.61094 10.4752 5.34233 11.2065C6.07372 11.9379 7.0657 12.3488 8.10005 12.3488C9.13439 12.3488 10.1264 11.9379 10.8578 11.2065C11.5892 10.4752 12 9.48317 12 8.44883C12 7.41448 11.5892 6.4225 10.8578 5.69111C10.1264 4.95972 9.13439 4.54883 8.10005 4.54883ZM14.9244 18.5228C15.57 18.7868 16.3824 18.9488 17.4 18.9488C19.6572 18.9488 20.9052 18.1472 21.5628 17.228C21.9067 16.7461 22.1219 16.1844 22.188 15.596C22.1939 15.5414 22.1979 15.4866 22.2001 15.4316V15.3488C22.2001 15.1124 22.1535 14.8784 22.063 14.66C21.9726 14.4416 21.84 14.2432 21.6728 14.076C21.5057 13.9089 21.3073 13.7763 21.0889 13.6858C20.8705 13.5954 20.6364 13.5488 20.4 13.5488H14.844C15.132 13.8968 15.3481 14.3036 15.474 14.7488H20.4C20.5592 14.7488 20.7118 14.812 20.8243 14.9246C20.9368 15.0371 21 15.1897 21 15.3488V15.4136L20.9941 15.4736C20.949 15.8543 20.8087 16.2175 20.5861 16.5296C20.1937 17.0804 19.3417 17.7488 17.4 17.7488C16.5216 17.7488 15.8664 17.612 15.3756 17.4116C15.2772 17.7476 15.1344 18.1268 14.9244 18.5228ZM1.80005 15.9488C1.80005 15.3123 2.05291 14.7019 2.50299 14.2518C2.95308 13.8017 3.56353 13.5488 4.20005 13.5488H12C12.6366 13.5488 13.247 13.8017 13.6971 14.2518C14.1472 14.7019 14.4 15.3123 14.4 15.9488V16.0496L14.3976 16.0976L14.3856 16.2596C14.3006 17.0373 14.0244 17.7818 13.5816 18.4268C12.7404 19.6448 11.1156 20.7488 8.10005 20.7488C5.08445 20.7488 3.45965 19.6448 2.61845 18.428C2.17553 17.7827 1.89931 17.0377 1.81445 16.2596C1.8076 16.1898 1.8028 16.1198 1.80005 16.0496V15.9488ZM3.00005 16.0208V16.0424L3.00845 16.142C3.07357 16.7173 3.27876 17.2677 3.60605 17.7452C4.19045 18.59 5.41565 19.5488 8.10005 19.5488C10.7844 19.5488 12.0096 18.59 12.594 17.7452C12.9213 17.2677 13.1265 16.7173 13.1916 16.142C13.1964 16.0964 13.1988 16.0632 13.1988 16.0424L13.2 16.022V15.9488C13.2 15.6306 13.0736 15.3253 12.8486 15.1003C12.6235 14.8753 12.3183 14.7488 12 14.7488H4.20005C3.88179 14.7488 3.57656 14.8753 3.35152 15.1003C3.12648 15.3253 3.00005 15.6306 3.00005 15.9488V16.0208ZM15.6 9.34883C15.6 8.87144 15.7897 8.4136 16.1273 8.07604C16.4648 7.73847 16.9227 7.54883 17.4 7.54883C17.8774 7.54883 18.3353 7.73847 18.6728 8.07604C19.0104 8.4136 19.2001 8.87144 19.2001 9.34883C19.2001 9.82622 19.0104 10.2841 18.6728 10.6216C18.3353 10.9592 17.8774 11.1488 17.4 11.1488C16.9227 11.1488 16.4648 10.9592 16.1273 10.6216C15.7897 10.2841 15.6 9.82622 15.6 9.34883ZM17.4 6.34883C16.6044 6.34883 15.8413 6.6649 15.2787 7.22751C14.7161 7.79012 14.4 8.55318 14.4 9.34883C14.4 10.1445 14.7161 10.9075 15.2787 11.4701C15.8413 12.0328 16.6044 12.3488 17.4 12.3488C18.1957 12.3488 18.9588 12.0328 19.5214 11.4701C20.084 10.9075 20.4 10.1445 20.4 9.34883C20.4 8.55318 20.084 7.79012 19.5214 7.22751C18.9588 6.6649 18.1957 6.34883 17.4 6.34883Z" fill="#B3C8CF"/>
</svg>
