<svg width="24" height="24" viewBox="0 0 24 24" fill="none" xmlns="http://www.w3.org/2000/svg">
<path d="M12.5 4.84863C12.5 5.39863 12.3043 5.86963 11.913 6.26163C11.5217 6.65363 11.0507 6.8493 10.5 6.84863C10.2833 6.84863 10.0833 6.8193 9.9 6.76063C9.71667 6.70197 9.53333 6.6063 9.35 6.47363C8.95 6.60697 8.62933 6.84863 8.388 7.19863C8.14667 7.54863 8.02567 7.93197 8.025 8.34863H21L20 15.3486H15.1V13.3486H18.275C18.3583 12.8486 18.4293 12.3486 18.488 11.8486C18.5467 11.3486 18.6173 10.8486 18.7 10.3486H5.3C5.38333 10.8486 5.45433 11.3486 5.513 11.8486C5.57167 12.3486 5.64233 12.8486 5.725 13.3486H8.9V15.3486H4L3 8.34863H6C6 7.53197 6.225 6.7903 6.675 6.12363C7.125 5.45697 7.73333 4.9653 8.5 4.64863C8.55 4.13197 8.76667 3.70297 9.15 3.36163C9.53333 3.0203 9.98333 2.8493 10.5 2.84863C11.05 2.84863 11.521 3.04463 11.913 3.43663C12.305 3.82863 12.5007 4.2993 12.5 4.84863ZM9.775 19.3486H14.225L14.8 13.3486H9.2L9.775 19.3486ZM8 21.3486L7.25 13.5486C7.18333 12.9653 7.35 12.453 7.75 12.0116C8.15 11.5703 8.64167 11.3493 9.225 11.3486H14.775C15.3583 11.3486 15.85 11.5696 16.25 12.0116C16.65 12.4536 16.8167 12.966 16.75 13.5486L16 21.3486H8Z" fill="#B3C8CF"/>
</svg>
