<svg width="24" height="24" viewBox="0 0 24 24" fill="none" xmlns="http://www.w3.org/2000/svg">
<path d="M7 21.3486V18.2736C5.26667 18.0403 3.83333 17.2653 2.7 15.9486C1.56667 14.632 1 13.0986 1 11.3486H3C3 12.732 3.48767 13.9113 4.463 14.8866C5.43833 15.862 6.61733 16.3493 8 16.3486H8.25C8.33333 16.3486 8.41667 16.3403 8.5 16.3236C8.71667 16.657 8.95 16.9696 9.2 17.2616C9.45 17.5536 9.71667 17.8243 10 18.0736C9.83333 18.1236 9.67067 18.1613 9.512 18.1866C9.35333 18.212 9.18267 18.241 9 18.2736V21.3486H7ZM7.5 14.2986C6.78333 14.1653 6.18767 13.828 5.713 13.2866C5.23833 12.7453 5.00067 12.0993 5 11.3486V5.34863C5 4.5153 5.29167 3.80697 5.875 3.22363C6.45833 2.6403 7.16667 2.34863 8 2.34863C8.83333 2.34863 9.54167 2.6403 10.125 3.22363C10.7083 3.80697 11 4.5153 11 5.34863V9.34863H7V11.3486C7 11.8653 7.04167 12.3696 7.125 12.8616C7.20833 13.3536 7.33333 13.8326 7.5 14.2986ZM16 14.3486C15.1667 14.3486 14.4583 14.057 13.875 13.4736C13.2917 12.8903 13 12.182 13 11.3486V5.34863C13 4.5153 13.2917 3.80697 13.875 3.22363C14.4583 2.6403 15.1667 2.34863 16 2.34863C16.8333 2.34863 17.5417 2.6403 18.125 3.22363C18.7083 3.80697 19 4.5153 19 5.34863V11.3486C19 12.182 18.7083 12.8903 18.125 13.4736C17.5417 14.057 16.8333 14.3486 16 14.3486ZM15 21.3486V18.2736C13.2667 18.0403 11.8333 17.2653 10.7 15.9486C9.56667 14.632 9 13.0986 9 11.3486H11C11 12.732 11.4877 13.9113 12.463 14.8866C13.4383 15.862 14.6173 16.3493 16 16.3486C17.3827 16.348 18.562 15.8603 19.538 14.8856C20.514 13.911 21.0013 12.732 21 11.3486H23C23 13.0986 22.4333 14.632 21.3 15.9486C20.1667 17.2653 18.7333 18.0403 17 18.2736V21.3486H15Z" fill="#B3C8CF"/>
</svg>
